# xmcd
#
# Track frame offsets:
#	150
#	17925
#	33300
#	46575
#	69300
#	88650
#	104475
#	124800
#	140250
#	158925
#
# Disc length: 2378 seconds
#
# Revision: 0
# Processed by: cddbd v1.5.1PL0 Copyright (c) Steve Scherf et al.
# Submitted via: audiograbber 1.83.01
#
DISCID=7e09480a
DTITLE=Διάφοροι - Το ρεμπέτικο τραγούδι Νο 4
DYEAR=1900
DGENRE=
TTITLE0=Στην υπόγα
TTITLE1=Παραμάνα κούνα κούνα
TTITLE2=Μέσα στην Αθήνα τριγυρνάς
TTITLE3=Σμυρνέικος μπάλος
TTITLE4=Σαν ρουφάω το κράσι
TTITLE5=Ντερβίσης
TTITLE6=Το καυμένο το γαιδουράκι
TTITLE7=Νέο μελαχροινό
TTITLE8=Το μπαρμπούτι
TTITLE9=Λημνέικο ζειμπέκικο
EXTD=
EXTT0=
EXTT1=
EXTT2=
EXTT3=
EXTT4=
EXTT5=
EXTT6=
EXTT7=
EXTT8=
EXTT9=
PLAYORDER=
